# Blender v2.93.3 OBJ File: ''
# www.blender.org
mtllib Spotlight.mtl
o Cylinder.042_Cylinder.004
v -0.099625 -0.126969 -0.033828
v 0.058493 -0.127187 -0.034016
v -0.099544 -0.126937 0.034180
v 0.058574 -0.127155 0.033993
v -0.099428 -0.092906 0.093061
v 0.058690 -0.093123 0.092873
v -0.099306 -0.033992 0.127038
v 0.058812 -0.034210 0.126851
v -0.099213 0.034017 0.127007
v 0.058905 0.033799 0.126819
v -0.099172 0.092899 0.092976
v 0.058946 0.092681 0.092788
v -0.099195 0.126876 0.034063
v 0.058923 0.126658 0.033875
v -0.099276 0.126844 -0.033946
v 0.058842 0.126626 -0.034133
v -0.099392 0.092812 -0.092827
v 0.058726 0.092595 -0.093014
v -0.099514 0.033899 -0.126804
v 0.058604 0.033681 -0.126991
v -0.099607 -0.034110 -0.126772
v 0.058511 -0.034328 -0.126960
v -0.099648 -0.092992 -0.092741
v 0.058470 -0.093210 -0.092929
v 0.104425 -0.095528 0.025431
v 0.104364 -0.095552 -0.025593
v 0.104512 -0.069995 0.069607
v 0.104604 -0.025795 0.095099
v 0.104674 0.025229 0.095075
v 0.104704 0.069406 0.069543
v 0.104687 0.094897 0.025344
v 0.104626 0.094873 -0.025680
v 0.104539 0.069340 -0.069856
v 0.104448 0.025140 -0.095348
v 0.104378 -0.025884 -0.095324
v 0.104347 -0.070060 -0.069792
v -0.122129 -0.110426 -0.029385
v -0.122059 -0.110398 0.029775
v -0.121957 -0.080794 0.080996
v -0.121852 -0.029545 0.110553
v -0.121770 0.029617 0.110525
v -0.121735 0.080837 0.080922
v -0.121755 0.110394 0.029673
v -0.121825 0.110367 -0.029487
v -0.121927 0.080763 -0.080708
v -0.122032 0.029514 -0.110265
v -0.122114 -0.029648 -0.110238
v -0.122149 -0.080869 -0.080634
v -0.339123 -0.110127 -0.029128
v -0.339053 -0.110099 0.030033
v -0.338951 -0.080495 0.081253
v -0.338846 -0.029246 0.110810
v -0.338764 0.029915 0.110782
v -0.338729 0.081136 0.081179
v -0.338749 0.110693 0.029931
v -0.338819 0.110666 -0.029230
v -0.338920 0.081061 -0.080451
v -0.339026 0.029812 -0.110008
v -0.339108 -0.029349 -0.109980
v -0.339143 -0.080570 -0.080377
v -0.381698 -0.115612 0.031579
v -0.381772 -0.115641 -0.030568
v -0.363087 -0.111720 -0.029535
v -0.363016 -0.111692 0.030498
v -0.362913 -0.081652 0.082473
v -0.362805 -0.029648 0.112465
v -0.362723 0.030385 0.112437
v -0.362687 0.082360 0.082397
v -0.362707 0.112353 0.030394
v -0.362778 0.112325 -0.029638
v -0.362881 0.082284 -0.081613
v -0.362989 0.030280 -0.111605
v -0.363071 -0.029753 -0.111578
v -0.363107 -0.081728 -0.081538
v -0.381591 -0.084513 0.085385
v -0.381480 -0.030678 0.116433
v -0.381395 0.031469 0.116404
v -0.381358 0.085276 0.085306
v -0.381379 0.116324 0.031472
v -0.381453 0.116295 -0.030674
v -0.381559 0.085197 -0.084481
v -0.381670 0.031361 -0.115529
v -0.381756 -0.030786 -0.115500
v -0.381793 -0.084592 -0.084402
v -0.381764 -0.073277 -0.073098
v -0.381746 -0.100189 -0.026435
v -0.381732 -0.026639 -0.100053
v -0.381658 0.027229 -0.100077
v -0.381561 0.073892 -0.073165
v -0.381469 0.100847 -0.026528
v -0.381405 0.100872 0.027339
v -0.381387 0.073960 0.074001
v -0.381419 0.027322 0.100956
v -0.381493 -0.026545 0.100981
v -0.381589 -0.073208 0.074069
v -0.381682 -0.100164 0.027432
v -0.351350 -0.063919 -0.063743
v -0.351334 -0.087395 -0.023038
v -0.351322 -0.023236 -0.087257
v -0.351257 0.023754 -0.087278
v -0.351173 0.064459 -0.063802
v -0.351092 0.087973 -0.023119
v -0.351037 0.087995 0.023870
v -0.351021 0.064519 0.064575
v -0.351049 0.023836 0.088088
v -0.351113 -0.023154 0.088110
v -0.351197 -0.063860 0.064634
v -0.351278 -0.087373 0.023951
v -0.299677 -0.009448 -0.009314
v -0.299674 -0.012986 -0.003180
v -0.299672 -0.003318 -0.012857
v -0.299663 0.003763 -0.012860
v -0.299650 0.009897 -0.009323
v -0.299638 0.013441 -0.003192
v -0.299630 0.013444 0.003889
v -0.299627 0.009906 0.010023
v -0.299631 0.003776 0.013566
v -0.299641 -0.003305 0.013569
v -0.299654 -0.009439 0.010032
v -0.299666 -0.012983 0.003901
v -0.405120 -0.084560 -0.084375
v -0.405099 -0.115608 -0.030540
v -0.405083 -0.030754 -0.115473
v -0.404998 0.031393 -0.115501
v -0.404887 0.085229 -0.084453
v -0.404780 0.116327 -0.030647
v -0.404706 0.116356 0.031499
v -0.404685 0.085308 0.085334
v -0.404722 0.031501 0.116432
v -0.404808 -0.030646 0.116461
v -0.404919 -0.084481 0.085412
v -0.405026 -0.115580 0.031606
v -0.405091 -0.073244 -0.073070
v -0.405073 -0.100157 -0.026408
v -0.405059 -0.026607 -0.100025
v -0.404985 0.027261 -0.100050
v -0.404889 0.073924 -0.073138
v -0.404796 0.100879 -0.026500
v -0.404732 0.100904 0.027367
v -0.404714 0.073992 0.074029
v -0.404746 0.027354 0.100984
v -0.404821 -0.026513 0.101009
v -0.404917 -0.073176 0.074097
v -0.405009 -0.100131 0.027459
v -0.146028 -0.112514 0.047139
v -0.145975 -0.096855 0.074232
v -0.145807 -0.015573 0.121110
v -0.145764 0.015720 0.121095
v -0.145708 0.096958 0.074143
v -0.145719 0.112592 0.047036
v -0.145830 0.112548 -0.046795
v -0.145884 0.096889 -0.073888
v -0.146051 0.015608 -0.120765
v -0.146094 -0.015685 -0.120751
v -0.146150 -0.096923 -0.073798
v -0.146140 -0.112557 -0.046691
v -0.315048 -0.112281 0.047340
v -0.314994 -0.096622 0.074433
v -0.314827 -0.015340 0.121310
v -0.314784 0.015953 0.121296
v -0.314728 0.097191 0.074343
v -0.314738 0.112825 0.047236
v -0.314849 0.112781 -0.046594
v -0.314903 0.097122 -0.073687
v -0.315071 0.015841 -0.120565
v -0.315114 -0.015453 -0.120550
v -0.315170 -0.096690 -0.073598
v -0.315159 -0.112324 -0.046490
vt 0.500000 0.519069
vt 0.500000 0.572601
vt 0.527669 0.572601
vt 0.527669 0.519069
vt 0.519069 0.452076
vt 0.572601 0.452076
vt 0.572601 0.472331
vt 0.519069 0.472331
vt 0.572601 0.500000
vt 0.519069 0.500000
vt 0.572601 0.527669
vt 0.519069 0.527669
vt 0.572601 0.547924
vt 0.519069 0.547924
vt 0.527669 0.519069
vt 0.527669 0.572601
vt 0.500000 0.572601
vt 0.500000 0.519069
vt 0.472331 0.572601
vt 0.472331 0.519069
vt 0.519069 0.547924
vt 0.572601 0.547924
vt 0.572601 0.527669
vt 0.519069 0.527669
vt 0.572601 0.500000
vt 0.519069 0.500000
vt 0.572601 0.472331
vt 0.519069 0.472331
vt 0.472331 0.572601
vt 0.479241 0.588113
vt 0.500000 0.588113
vt 0.572601 0.452076
vt 0.519069 0.452076
vt 0.472331 0.519069
vt 0.520758 0.464045
vt 0.500000 0.458482
vt 0.479241 0.464045
vt 0.464045 0.479241
vt 0.458483 0.500000
vt 0.464045 0.520759
vt 0.479241 0.535955
vt 0.500000 0.541518
vt 0.520758 0.535955
vt 0.535955 0.520759
vt 0.541517 0.500000
vt 0.535955 0.479241
vt 0.472331 0.452076
vt 0.452077 0.472331
vt 0.520758 0.588113
vt 0.588113 0.520759
vt 0.588113 0.500000
vt 0.500000 0.588113
vt 0.479241 0.588113
vt 0.527669 0.547924
vt 0.547923 0.527669
vt 0.588113 0.479241
vt 0.588113 0.500000
vt 0.588113 0.479241
vt 0.452077 0.527669
vt 0.472331 0.547924
vt 0.520758 0.588113
vt 0.588113 0.520759
vt 0.547923 0.472331
vt 0.527669 0.452076
vt 0.475931 0.511440
vt 0.500000 0.511440
vt 0.524069 0.511440
vt 0.547923 0.527669
vt 0.527669 0.547924
vt 0.524069 0.541689
vt 0.541689 0.524069
vt 0.511440 0.524069
vt 0.511440 0.500000
vt 0.500000 0.511440
vt 0.475931 0.511440
vt 0.524069 0.511440
vt 0.511440 0.475931
vt 0.452077 0.472331
vt 0.472331 0.452076
vt 0.475931 0.458311
vt 0.458311 0.475931
vt 0.527669 0.452076
vt 0.547923 0.472331
vt 0.541689 0.475931
vt 0.524069 0.458311
vt 0.511440 0.475931
vt 0.511440 0.500000
vt 0.511440 0.524069
vt 0.472331 0.547924
vt 0.452077 0.527669
vt 0.458311 0.524069
vt 0.475931 0.541689
vt 0.511440 0.458311
vt 0.437975 0.458311
vt 0.437975 0.475931
vt 0.524069 0.437975
vt 0.500000 0.437975
vt 0.511440 0.541689
vt 0.437975 0.541689
vt 0.437975 0.524069
vt 0.437975 0.500000
vt 0.437975 0.524069
vt 0.437975 0.500000
vt 0.437975 0.475931
vt 0.475931 0.437975
vt 0.500000 0.437975
vt 0.419785 0.521915
vt 0.419785 0.500000
vt 0.411887 0.500000
vt 0.411887 0.521915
vt 0.500000 0.419785
vt 0.478085 0.419785
vt 0.478085 0.411887
vt 0.500000 0.411887
vt 0.419785 0.474716
vt 0.419785 0.500000
vt 0.411887 0.500000
vt 0.411887 0.474716
vt 0.525284 0.419785
vt 0.500000 0.419785
vt 0.500000 0.411887
vt 0.525284 0.411887
vt 0.419785 0.537959
vt 0.411887 0.537959
vt 0.419785 0.525284
vt 0.419785 0.500000
vt 0.411887 0.500000
vt 0.411887 0.525284
vt 0.500000 0.419785
vt 0.521915 0.419785
vt 0.521915 0.411887
vt 0.500000 0.411887
vt 0.478085 0.419785
vt 0.478085 0.411887
vt 0.419785 0.456207
vt 0.411887 0.456207
vt 0.500000 0.430074
vt 0.521915 0.430074
vt 0.419785 0.525284
vt 0.419785 0.543793
vt 0.411887 0.543793
vt 0.411887 0.525284
vt 0.419785 0.543793
vt 0.411887 0.543793
vt 0.419785 0.521915
vt 0.419785 0.537959
vt 0.411887 0.537959
vt 0.411887 0.521915
vt 0.419785 0.500000
vt 0.430074 0.500000
vt 0.430074 0.521915
vt 0.419785 0.462041
vt 0.419785 0.478084
vt 0.430074 0.478084
vt 0.430074 0.462041
vt 0.500000 0.430074
vt 0.478085 0.430074
vt 0.430074 0.537959
vt 0.430074 0.521915
vt 0.430074 0.537959
vt 0.521915 0.419785
vt 0.521915 0.430074
vt 0.419785 0.478084
vt 0.419785 0.462041
vt 0.430074 0.462041
vt 0.430074 0.478084
vt 0.430074 0.500000
vt 0.478085 0.430074
vt 0.456207 0.474716
vt 0.474716 0.456207
vt 0.478085 0.462041
vt 0.462042 0.478084
vt 0.543793 0.474716
vt 0.550567 0.500000
vt 0.543831 0.500000
vt 0.537958 0.478084
vt 0.449433 0.500000
vt 0.456169 0.500000
vt 0.474716 0.543793
vt 0.456207 0.525284
vt 0.462042 0.521915
vt 0.478085 0.537959
vt 0.500000 0.449432
vt 0.500000 0.456169
vt 0.525284 0.543793
vt 0.500000 0.550568
vt 0.500000 0.543831
vt 0.521915 0.537959
vt 0.543793 0.525284
vt 0.537958 0.521915
vt 0.525284 0.456207
vt 0.521915 0.462041
vt 0.411887 0.478084
vt 0.411887 0.462041
vt 0.411887 0.478084
vt 0.419785 0.474716
vt 0.411887 0.474716
vt 0.411887 0.500000
vt 0.474716 0.419785
vt 0.474716 0.411887
vt 0.474716 0.419785
vt 0.500000 0.419785
vt 0.500000 0.411887
vt 0.474716 0.411887
vt 0.525284 0.419785
vt 0.525284 0.411887
vt 0.411887 0.462041
vt 0.419785 0.456207
vt 0.411887 0.456207
vt 0.521915 0.411887
vt 0.426109 0.542303
vt 0.426109 0.524424
vt 0.500000 0.426109
vt 0.524424 0.426109
vt 0.524069 0.437975
vt 0.475576 0.426109
vt 0.426109 0.524424
vt 0.426109 0.542303
vt 0.437975 0.541689
vt 0.426109 0.500000
vt 0.426109 0.475576
vt 0.426109 0.457697
vt 0.500000 0.426109
vt 0.475576 0.426109
vt 0.475931 0.437975
vt 0.524424 0.426109
vt 0.426109 0.475576
vt 0.426109 0.457697
vt 0.437975 0.458311
vt 0.426109 0.500000
vt 0.832903 0.693197
vt 0.884227 0.501651
vt 0.551494 0.501651
vt 0.544747 0.526830
vt 0.515119 0.570789
vt 0.538418 0.564546
vt 0.555474 0.547490
vt 0.561717 0.524191
vt 0.555474 0.500891
vt 0.538418 0.483835
vt 0.515119 0.477592
vt 0.491819 0.483835
vt 0.474763 0.500891
vt 0.468520 0.524191
vt 0.474763 0.547490
vt 0.491819 0.564546
vt 0.692682 0.169885
vt 0.501136 0.118560
vt 0.501136 0.451293
vt 0.526315 0.458040
vt 0.169370 0.310106
vt 0.118046 0.501651
vt 0.450778 0.501651
vt 0.457525 0.476472
vt 0.692682 0.833418
vt 0.526315 0.545263
vt 0.309591 0.833418
vt 0.501136 0.884742
vt 0.501136 0.552009
vt 0.475957 0.545263
vt 0.832903 0.310106
vt 0.544747 0.476472
vt 0.309591 0.169885
vt 0.475957 0.458040
vt 0.169370 0.693197
vt 0.457525 0.526830
vt -0.020142 0.500000
vt 0.309010 0.500000
vt 0.272625 0.530545
vt 0.016244 0.530545
vt 0.309010 0.607840
vt -0.020142 0.607840
vt 0.016244 0.640491
vt 0.272625 0.640491
vt 0.500000 -0.020142
vt 0.392161 -0.020142
vt 0.412414 0.016244
vt 0.469455 0.016244
vt 0.607839 0.309010
vt 0.500000 0.309010
vt 0.530544 0.272625
vt 0.587585 0.272625
vt 0.392161 -0.020142
vt 0.392161 0.309010
vt 0.359510 0.272625
vt 0.359510 0.016244
vt -0.020142 0.607840
vt 0.016244 0.587586
vt 0.526652 0.711398
vt 0.622718 0.712583
vt 0.620765 0.740475
vt 0.521315 0.739249
vt 0.373213 0.021989
vt 0.371161 0.077452
vt 0.343310 0.072116
vt 0.345435 0.014699
vt 0.733647 0.712583
vt 0.829713 0.711398
vt 0.835049 0.739249
vt 0.735600 0.740475
vt 0.252006 0.544678
vt 0.252006 0.655608
vt 0.224114 0.657561
vt 0.224114 0.542725
vt 0.253191 0.751676
vt 0.255243 0.807141
vt 0.227465 0.814431
vt 0.225341 0.757012
vt 0.369976 0.173519
vt 0.369976 0.284447
vt 0.342084 0.286401
vt 0.342084 0.171566
vt 0.371160 0.380515
vt 0.373213 0.435980
vt 0.345435 0.443271
vt 0.343310 0.385852
vt 0.253191 0.448612
vt 0.225341 0.443274
vt 0.272625 0.587586
vt 0.272625 0.682248
vt 0.016244 0.682248
vt 0.412414 0.272625
vt 0.469455 0.272625
vt 0.272625 0.317752
vt 0.272625 0.359509
vt 0.016244 0.359509
vt 0.016244 0.317752
vt 0.530544 0.016244
vt 0.587585 0.016244
vt 0.272625 0.469455
vt 0.272625 0.412414
vt 0.016244 0.412414
vt 0.016244 0.469455
vt 0.500000 -0.020142
vt 0.607838 -0.020142
vt -0.020142 0.686784
vt 0.309010 0.686784
vt 0.272625 0.712793
vt 0.016244 0.712793
vt 0.309010 0.686784
vt 0.686781 0.309010
vt 0.686781 -0.020142
vt 0.712790 0.016244
vt 0.712790 0.272625
vt 0.309010 0.392160
vt -0.020142 0.392160
vt 0.313218 0.309010
vt 0.313218 -0.020142
vt 0.287209 0.016244
vt 0.287209 0.272625
vt 0.309010 0.313216
vt -0.020142 0.686784
vt -0.020142 0.500000
vt 0.309010 0.500000
vt 0.309010 0.392160
vt -0.020142 0.313216
vt 0.309010 0.313216
vt 0.272625 0.287207
vt 0.016244 0.287207
vt -0.020142 0.313216
vt 0.500000 0.309010
vt 0.309010 0.607840
vt -0.020142 0.392160
vt 0.392161 0.309010
vt 0.607838 -0.020142
vt 0.607839 0.309010
vt 0.640490 0.272625
vt 0.640490 0.016244
vn -0.3055 -0.9199 -0.2458
vn 0.2904 -0.9243 -0.2474
vn 0.2910 -0.9241 0.2476
vn -0.3049 -0.9197 0.2474
vn 0.2919 -0.6764 0.6762
vn -0.3041 -0.6729 0.6743
vn 0.2928 -0.2475 0.9236
vn -0.3032 -0.2457 0.9207
vn 0.2934 0.2475 0.9233
vn -0.3025 0.2474 0.9204
vn 0.2937 0.6762 0.6756
vn -0.3022 0.6744 0.6737
vn 0.2936 0.9235 0.2467
vn -0.3024 0.9207 0.2465
vn 0.2930 0.9233 -0.2483
vn -0.3030 0.9205 -0.2466
vn 0.2921 0.6756 -0.6769
vn -0.3038 0.6737 -0.6736
vn 0.2912 0.2467 -0.9243
vn -0.3047 0.2466 -0.9199
vn 0.2906 -0.2484 -0.9240
vn -0.3054 -0.2466 -0.9197
vn 0.2903 -0.6770 -0.6763
vn 0.8574 -0.3641 -0.3636
vn 0.8575 -0.4968 -0.1335
vn -0.3057 -0.6735 -0.6730
vn 0.8578 -0.4967 0.1320
vn 0.8576 -0.1342 -0.4965
vn 0.8579 0.1314 -0.4966
vn 0.8584 0.3614 -0.3640
vn 0.8589 0.4943 -0.1340
vn 0.8592 0.4944 0.1315
vn 0.8593 0.3618 0.3616
vn 0.8591 0.1318 0.4945
vn 0.8587 -0.1337 0.4946
vn 0.8583 -0.3638 0.3619
vn -0.2676 0.9453 -0.1864
vn -0.2671 0.9455 0.1861
vn -0.2669 0.6345 0.7253
vn -0.2672 0.3120 0.9117
vn -0.2680 -0.3104 0.9120
vn -0.2702 -0.9448 -0.1855
vn -0.2704 -0.6338 -0.7247
vn -0.2698 -0.9446 0.1870
vn -0.2687 -0.6331 0.7259
vn -0.2702 -0.3112 -0.9111
vn -0.2693 0.3111 -0.9114
vn -0.2687 0.6339 -0.7253
vn -0.0376 -0.6609 -0.7495
vn -0.0374 -0.3194 -0.9469
vn -0.0369 -0.9796 0.1977
vn -0.0374 -0.9797 -0.1967
vn -0.0340 0.6610 0.7496
vn -0.0342 0.3195 0.9470
vn -0.0365 0.3186 -0.9471
vn -0.0358 0.6604 -0.7501
vn -0.0351 -0.3185 0.9472
vn -0.0358 -0.6602 0.7502
vn -0.0347 0.9796 -0.1976
vn -0.0342 0.9798 0.1968
vn -0.1996 -0.2538 -0.9464
vn -0.1989 0.2535 -0.9466
vn -0.7707 0.1658 -0.6151
vn -0.7712 -0.1643 -0.6150
vn -0.1965 0.9471 0.2535
vn -0.1964 0.6937 0.6930
vn -0.7691 0.4522 0.4516
vn -0.7692 0.6171 0.1657
vn 0.1054 -0.7030 0.7033
vn 0.1064 -0.2571 0.9605
vn -0.6526 -0.1947 0.7322
vn -0.6533 -0.5342 0.5364
vn 0.1074 0.7033 0.7027
vn 0.1072 0.9605 0.2568
vn -0.6520 0.7323 0.1964
vn -0.6518 0.5365 0.5359
vn -0.1999 -0.6931 -0.6925
vn -0.7714 -0.4501 -0.4498
vn 0.1057 0.7027 -0.7036
vn 0.1048 0.2568 -0.9608
vn -0.6538 0.1965 -0.7307
vn -0.6531 0.5360 -0.5349
vn -0.1998 -0.9466 -0.2530
vn -0.7713 -0.6150 -0.1639
vn -0.1992 -0.9463 0.2543
vn -0.7709 -0.6149 0.1662
vn 0.1046 -0.9605 0.2577
vn -0.6540 -0.7304 0.1971
vn -0.6211 -0.7572 -0.2020
vn -0.6212 -0.5543 -0.5539
vn 0.1071 0.2576 0.9603
vn -0.6521 0.1972 0.7320
vn 0.1066 0.9602 -0.2579
vn -0.6524 0.7321 -0.1955
vn -0.1983 -0.6925 0.6936
vn -0.7703 -0.4497 0.4520
vn -0.1974 -0.2530 0.9471
vn -0.6192 -0.2019 0.7588
vn -0.6199 -0.5538 0.5559
vn -0.1971 0.9469 -0.2539
vn -0.1980 0.6930 -0.6932
vn -0.6197 0.5555 -0.5544
vn -0.6190 0.7587 -0.2027
vn -0.6185 0.7589 0.2035
vn -0.6184 0.5560 0.5553
vn -0.6210 -0.2026 -0.7572
vn -0.6206 -0.7570 0.2042
vn -0.1967 0.2544 0.9469
vn -0.6186 0.2043 0.7586
vn -0.6204 0.2036 -0.7573
vn -0.6543 -0.1954 -0.7305
vn -0.6546 -0.5347 -0.5343
vn -0.7693 0.1664 0.6168
vn -0.7702 0.4518 -0.4502
vn -0.7697 -0.1637 0.6170
vn -0.6544 -0.7306 -0.1948
vn -0.7696 0.6170 -0.1644
vn 0.1041 -0.2579 -0.9605
vn 0.1038 -0.7036 -0.7029
vn 0.1039 -0.9608 -0.2570
vn 0.1457 0.6999 0.6992
vn 0.1454 0.2564 0.9556
vn 0.1455 0.9558 0.2555
vn 0.1449 0.9555 -0.2567
vn 0.1440 0.6992 -0.7002
vn 0.1431 0.2555 -0.9561
vn 0.1424 -0.2568 -0.9559
vn 0.1421 -0.7002 -0.6996
vn 0.1423 -0.9562 -0.2558
vn 0.1429 -0.9559 0.2564
vn 0.1438 -0.6996 0.6999
vn 0.1447 -0.2559 0.9558
vn -0.9431 0.0874 -0.3209
vn -0.9427 0.2369 -0.2347
vn -0.9422 0.3233 0.0872
vn -0.9424 0.3232 -0.0853
vn -0.9433 -0.0851 -0.3208
vn -0.9434 -0.2345 -0.2345
vn -0.9433 -0.3207 -0.0850
vn -0.9431 -0.3206 0.0875
vn -0.9428 -0.2343 0.2369
vn -0.9425 -0.0848 0.3231
vn -0.9423 0.0877 0.3230
vn -0.9422 0.2371 0.2367
vn 0.1454 -0.2643 0.9534
vn -0.1438 -0.2639 0.9537
vn -0.1445 0.6933 -0.7060
vn 0.1447 0.6929 -0.7063
vn -0.1464 -0.6936 -0.7053
vn -0.1462 -0.9579 -0.2470
vn 0.1462 0.9579 0.2470
vn 0.1464 0.6936 0.7053
vn 0.1456 0.9577 -0.2482
vn -0.1436 0.9581 -0.2479
vn -0.1431 0.2652 0.9535
vn 0.1461 0.2648 0.9532
vn 0.1428 -0.6940 -0.7057
vn 0.1430 -0.9583 -0.2473
vn 0.1436 -0.9581 0.2479
vn 0.1445 -0.6933 0.7060
vn -0.1447 -0.6929 0.7063
vn -0.1456 -0.9577 0.2482
vn -0.1430 0.9583 0.2473
vn -0.1428 0.6940 0.7057
vn 0.1438 0.2639 -0.9537
vn 0.1431 -0.2652 -0.9535
vn -0.1461 -0.2648 -0.9532
vn -0.1454 0.2643 -0.9534
usemtl Dark_Metal
s 1
f 1/1/1 2/2/2 4/3/3 3/4/4
f 3/5/4 4/6/3 6/7/5 5/8/6
f 5/8/6 6/7/5 8/9/7 7/10/8
f 7/10/8 8/9/7 10/11/9 9/12/10
f 9/12/10 10/11/9 12/13/11 11/14/12
f 11/15/12 12/16/11 14/17/13 13/18/14
f 13/18/14 14/17/13 16/19/15 15/20/16
f 15/21/16 16/22/15 18/23/17 17/24/18
f 17/24/18 18/23/17 20/25/19 19/26/20
f 19/26/20 20/25/19 22/27/21 21/28/22
f 2/2/2 24/29/23 36/30/24 26/31/25
f 21/28/22 22/27/21 24/32/23 23/33/26
f 23/34/26 24/29/23 2/2/2 1/1/1
f 25/35/27 26/36/25 36/37/24 35/38/28 34/39/29 33/40/30 32/41/31 31/42/32 30/43/33 29/44/34 28/45/35 27/46/36
f 24/47/23 22/48/21 35/38/28 36/37/24
f 4/3/3 2/2/2 26/31/25 25/49/27
f 20/25/19 18/23/17 33/50/30 34/51/29
f 16/19/15 14/17/13 31/52/32 32/53/31
f 12/54/11 10/55/9 29/44/34 30/43/33
f 8/9/7 6/7/5 27/56/36 28/57/35
f 22/27/21 20/25/19 34/51/29 35/58/28
f 18/59/17 16/60/15 32/41/31 33/40/30
f 14/17/13 12/16/11 30/61/33 31/52/32
f 10/11/9 8/9/7 28/57/35 29/62/34
f 6/63/5 4/64/3 25/35/27 27/46/36
f 13/18/14 15/20/16 44/65/37 43/66/38
f 11/15/12 13/18/14 43/66/38 42/67/39
f 9/68/10 11/69/12 42/70/39 41/71/40
f 7/10/8 9/12/10 41/72/40 40/73/41
f 23/34/26 1/1/1 37/74/42 48/75/43
f 1/1/1 3/4/4 38/76/44 37/74/42
f 5/8/6 7/10/8 40/73/41 39/77/45
f 21/78/22 23/79/26 48/80/43 47/81/46
f 3/82/4 5/83/6 39/84/45 38/85/44
f 19/26/20 21/28/22 47/86/46 46/87/47
f 17/24/18 19/26/20 46/87/47 45/88/48
f 15/89/16 17/90/18 45/91/48 44/92/37
f 47/86/46 48/93/43 60/94/49 59/95/50
f 37/74/42 38/76/44 50/96/51 49/97/52
f 41/72/40 42/98/39 54/99/53 53/100/54
f 45/88/48 46/87/47 58/101/55 57/102/56
f 39/77/45 40/73/41 52/103/57 51/104/58
f 43/66/38 44/65/37 56/105/59 55/106/60
f 93/107/61 94/108/62 142/109/63 141/110/64
f 86/111/65 85/112/66 133/113/67 134/114/68
f 75/115/69 76/116/70 130/117/71 131/118/72
f 78/119/73 79/120/74 127/121/75 128/122/76
f 92/123/77 93/107/61 141/110/64 140/124/78
f 81/125/79 82/126/80 124/127/81 125/128/82
f 91/129/83 92/130/77 140/131/78 139/132/84
f 90/133/85 91/129/83 139/132/84 138/134/86
f 61/135/87 75/115/69 131/118/72 132/136/88
f 92/130/77 91/129/83 103/137/89 104/138/90
f 77/139/91 78/140/73 128/141/76 129/142/92
f 80/143/93 81/125/79 125/128/82 126/144/94
f 89/145/95 90/146/85 138/147/86 137/148/96
f 89/145/95 88/149/97 100/150/98 101/151/99
f 96/152/100 95/153/101 107/154/102 108/155/103
f 85/112/66 86/111/65 98/156/104 97/157/105
f 93/107/61 92/123/77 104/158/90 105/159/106
f 90/146/85 89/145/95 101/151/99 102/160/107
f 86/111/65 96/161/100 108/162/103 98/156/104
f 87/163/108 85/164/66 97/165/105 99/166/109
f 94/108/62 93/107/61 105/159/106 106/167/110
f 91/129/83 90/133/85 102/168/107 103/137/89
f 88/149/97 87/163/108 99/166/109 100/150/98
f 95/153/101 94/108/62 106/167/110 107/154/102
f 123/169/111 121/170/112 133/171/67 135/172/113
f 131/173/72 130/174/71 142/175/63 143/176/114
f 124/177/81 123/169/111 135/172/113 136/178/115
f 126/179/94 125/180/82 137/181/96 138/182/86
f 121/170/112 122/183/116 134/184/68 133/171/67
f 128/185/76 127/186/75 139/187/84 140/188/78
f 130/174/71 129/189/92 141/190/64 142/175/63
f 132/191/88 131/173/72 143/176/114 144/192/117
f 125/180/82 124/177/81 136/178/115 137/181/96
f 127/186/75 126/179/94 138/182/86 139/187/84
f 122/183/116 132/191/88 144/192/117 134/184/68
f 129/189/92 128/185/76 140/188/78 141/190/64
f 85/164/66 87/163/108 135/193/113 133/194/67
f 94/108/62 95/153/101 143/195/114 142/109/63
f 82/126/80 83/196/118 123/197/111 124/127/81
f 87/163/108 88/149/97 136/198/115 135/193/113
f 79/120/74 80/199/93 126/200/94 127/121/75
f 84/201/119 62/202/120 122/203/116 121/204/112
f 76/116/70 77/139/91 129/142/92 130/117/71
f 62/202/120 61/205/87 132/206/88 122/203/116
f 95/153/101 96/152/100 144/207/117 143/195/114
f 88/149/97 89/145/95 137/148/96 136/198/115
f 83/196/118 84/208/119 121/209/112 123/197/111
f 96/161/100 86/111/65 134/114/68 144/210/117
f 54/99/53 68/211/121 67/212/122 53/100/54
f 55/106/60 69/213/123 68/214/121 54/215/53
f 56/105/59 70/216/124 69/213/123 55/106/60
f 57/102/56 71/217/125 70/218/124 56/219/59
f 58/101/55 72/220/126 71/217/125 57/102/56
f 59/95/50 73/221/127 72/220/126 58/101/55
f 60/94/49 74/222/128 73/221/127 59/95/50
f 49/97/52 63/223/129 74/224/128 60/225/49
f 50/96/51 64/226/130 63/223/129 49/97/52
f 51/104/58 65/227/131 64/228/130 50/229/51
f 52/103/57 66/230/132 65/227/131 51/104/58
f 53/100/54 67/212/122 66/230/132 52/103/57
usemtl Spot_Bulb
f 107/231/102 106/232/110 118/233/133 119/234/134
f 110/235/135 120/236/136 119/237/134 118/238/133 117/239/137 116/240/138 115/241/139 114/242/140 113/243/141 112/244/142 111/245/143 109/246/144
f 104/247/90 103/248/89 115/249/139 116/250/138
f 101/251/99 100/252/98 112/253/142 113/254/141
f 108/255/103 107/231/102 119/234/134 120/256/136
f 97/257/105 98/258/104 110/259/135 109/260/144
f 105/261/106 104/247/90 116/250/138 117/262/137
f 102/263/107 101/251/99 113/254/141 114/264/140
f 98/258/104 108/255/103 120/256/136 110/259/135
f 99/265/109 97/257/105 109/260/144 111/266/143
f 106/232/110 105/261/106 117/262/137 118/233/133
f 103/248/89 102/263/107 114/264/140 115/249/139
f 100/252/98 99/265/109 111/266/143 112/253/142
usemtl Bare_Metal
f 52/267/57 40/268/41 147/269/145 159/270/146
f 45/271/48 57/272/56 164/273/147 152/274/148
f 49/275/52 60/276/49 167/277/149 168/278/150
f 42/279/39 43/280/38 150/281/151 149/282/152
f 56/283/59 44/284/37 151/285/153 163/286/154
f 53/287/54 52/267/57 159/270/146 160/288/155
f 67/289/122 68/290/121 78/291/73 77/292/91
f 74/293/128 63/294/129 62/295/120 84/296/119
f 69/297/123 70/298/124 80/299/93 79/300/74
f 71/301/125 72/302/126 82/303/80 81/304/79
f 73/305/127 74/306/128 84/307/119 83/308/118
f 64/309/130 65/310/131 75/311/69 61/312/87
f 63/294/129 64/309/130 61/312/87 62/295/120
f 66/313/132 67/314/122 77/315/91 76/316/70
f 68/290/121 69/297/123 79/300/74 78/291/73
f 70/317/124 71/301/125 81/304/79 80/318/93
f 65/310/131 66/313/132 76/316/70 75/311/69
f 72/302/126 73/305/127 83/308/118 82/303/80
f 147/269/145 148/319/156 160/288/155 159/270/146
f 151/320/153 152/274/148 164/273/147 163/321/154
f 155/322/157 156/323/158 168/278/150 167/277/149
f 145/324/159 146/325/160 158/326/161 157/327/162
f 149/282/152 150/281/151 162/328/163 161/329/164
f 153/330/165 154/331/166 166/332/167 165/333/168
f 55/334/60 54/335/53 161/329/164 162/328/163
f 54/336/53 42/337/39 149/338/152 161/339/164
f 44/340/37 45/271/48 152/274/148 151/320/153
f 41/341/40 53/342/54 160/343/155 148/344/156
f 39/345/45 51/346/58 158/326/161 146/325/160
f 47/347/46 59/348/50 166/349/167 154/350/166
f 38/351/44 39/345/45 146/325/160 145/324/159
f 57/272/56 56/352/59 163/321/154 164/273/147
f 58/353/55 46/354/47 153/330/165 165/333/168
f 46/354/47 47/355/46 154/331/166 153/330/165
f 60/356/49 48/357/43 155/358/157 167/359/149
f 43/280/38 55/334/60 162/328/163 150/281/151
f 51/346/58 50/360/51 157/327/162 158/326/161
f 37/361/42 49/275/52 168/278/150 156/323/158
f 40/268/41 41/362/40 148/319/156 147/269/145
f 59/363/50 58/353/55 165/333/168 166/332/167
f 48/364/43 37/361/42 156/323/158 155/322/157
f 50/365/51 38/366/44 145/367/159 157/368/162
