# Blender v2.93.3 OBJ File: ''
# www.blender.org
mtllib Spotlight Fork.mtl
o Cylinder.047_Cylinder.037
v 0.302099 -0.009101 -0.017057
v 0.302112 -0.016041 -0.010133
v 0.180978 -0.016214 -0.009426
v 0.180965 -0.009274 -0.016350
v 0.180881 0.019117 0.000085
v 0.180894 0.016590 -0.009388
v 0.180916 0.009666 -0.016329
v 0.180942 0.000199 -0.018877
v 0.180978 -0.018763 0.000041
v 0.180966 -0.016236 0.009514
v 0.180944 -0.009312 0.016454
v 0.180918 0.000155 0.019003
v 0.180895 0.009628 0.016476
v 0.180882 0.016569 0.009552
v 0.302016 0.016742 0.008845
v 0.302016 0.019290 -0.000622
v 0.302028 0.016763 -0.010095
v 0.302050 0.009839 -0.017035
v 0.302078 -0.009139 0.015748
v 0.302052 0.000328 0.018296
v 0.302113 -0.018589 -0.000665
v 0.302076 0.000372 -0.019584
v 0.302030 0.009801 0.015769
v 0.302100 -0.016063 0.008807
v 0.168565 0.145858 0.019106
v 0.168565 0.145858 0.019106
v 0.168589 0.145902 -0.018661
v 0.168589 0.145902 -0.018661
v 0.177069 0.141914 -0.018660
v 0.180603 0.132244 -0.018669
v 0.181281 -0.131847 -0.018973
v 0.177797 -0.141534 -0.018986
v 0.169337 -0.145565 -0.018996
v 0.169337 -0.145565 -0.018996
v 0.169313 -0.145609 0.018772
v 0.169313 -0.145609 0.018772
v 0.177773 -0.141578 0.018782
v 0.181257 -0.131890 0.018795
v 0.180579 0.132201 0.019098
v 0.177045 0.141871 0.019107
v 0.168620 0.133923 -0.018675
v 0.169307 -0.133587 -0.018982
v 0.169283 -0.133630 0.018785
v 0.168596 0.133880 0.019093
v -0.019329 0.145394 0.002703
v -0.019326 0.145400 -0.002497
v -0.019295 0.133422 -0.002511
v -0.019298 0.133416 0.002689
v -0.002314 -0.134027 -0.019092
v -0.013831 -0.134062 -0.014329
v -0.018608 -0.134088 -0.002818
v -0.018611 -0.134094 0.002381
v -0.013849 -0.134095 0.013899
v -0.002338 -0.134071 0.018676
v -0.003056 0.145418 0.018997
v -0.003025 0.133439 0.018983
v -0.003001 0.133482 -0.018784
v -0.003032 0.145461 -0.018771
v -0.018577 -0.146067 -0.002832
v -0.018581 -0.146073 0.002368
v -0.002307 -0.146049 0.018662
v -0.002283 -0.146006 -0.019106
v -0.014536 0.133415 0.014207
v -0.014518 0.133447 -0.014022
v -0.013819 -0.146074 0.013885
v -0.013801 -0.146041 -0.014343
v -0.014567 0.145393 0.014220
v -0.014549 0.145426 -0.014008
v 0.302121 -0.017066 -0.030889
v 0.302142 -0.029854 -0.018130
v 0.301986 0.030556 0.016841
v 0.301986 0.035251 -0.000604
v 0.302006 0.030594 -0.018060
v 0.302041 0.017835 -0.030848
v 0.302087 -0.017136 0.029562
v 0.302044 0.000309 0.034257
v 0.302143 -0.034549 -0.000683
v 0.302083 0.000390 -0.035545
v 0.302009 0.017765 0.029600
v 0.302122 -0.029895 0.016771
v 0.403734 -0.017066 -0.030889
v 0.403755 -0.029854 -0.018130
v 0.403599 0.030556 0.016841
v 0.403599 0.035251 -0.000604
v 0.403619 0.030594 -0.018060
v 0.403654 0.017835 -0.030848
v 0.403700 -0.017136 0.029562
v 0.403658 0.000309 0.034257
v 0.403756 -0.034549 -0.000683
v 0.403696 0.000390 -0.035545
v 0.403622 0.017765 0.029600
v 0.403735 -0.029895 0.016771
vt 0.736171 0.478153
vt 0.736201 0.461750
vt 0.449890 0.461341
vt 0.449860 0.477745
vt 0.544849 0.500881
vt 0.538876 0.478490
vt 0.522511 0.462085
vt 0.500135 0.456062
vt 0.477745 0.462035
vt 0.461341 0.478401
vt 0.455316 0.500777
vt 0.461289 0.523167
vt 0.477655 0.539570
vt 0.500031 0.545595
vt 0.522421 0.539622
vt 0.538827 0.523257
vt 0.735974 0.521586
vt 0.735974 0.499210
vt 0.449661 0.500881
vt 0.449664 0.523257
vt 0.736003 0.476819
vt 0.736055 0.460416
vt 0.449744 0.462085
vt 0.449692 0.478490
vt 0.736121 0.478064
vt 0.736060 0.500440
vt 0.449749 0.500031
vt 0.449810 0.477655
vt 0.736201 0.476730
vt 0.736204 0.499108
vt 0.449890 0.500777
vt 0.449890 0.478401
vt 0.736055 0.522920
vt 0.736116 0.500544
vt 0.449805 0.500135
vt 0.449744 0.522511
vt 0.736008 0.522830
vt 0.449694 0.522421
vt 0.736173 0.521496
vt 0.449862 0.523167
vt 0.735974 0.539236
vt 0.449664 0.538827
vt 0.736121 0.537902
vt 0.449810 0.539570
vt 0.420551 0.844413
vt 0.420551 0.844413
vt 0.420608 0.844517
vt 0.420608 0.844517
vt 0.440651 0.835091
vt 0.449004 0.812235
vt 0.450607 0.188032
vt 0.442372 0.165136
vt 0.422376 0.155609
vt 0.422376 0.155609
vt 0.422319 0.155505
vt 0.422319 0.155505
vt 0.442315 0.165032
vt 0.450550 0.187931
vt 0.448947 0.812133
vt 0.440594 0.834989
vt 0.816203 0.456540
vt 0.183920 0.455814
vt 0.183818 0.545080
vt 0.816102 0.545808
vt 0.843316 0.507069
vt 0.843330 0.494778
vt 0.815019 0.494745
vt 0.815005 0.507036
vt 0.844413 0.545839
vt 0.844517 0.456573
vt 0.422248 0.545080
vt 0.422305 0.455814
vt 0.016663 0.455554
vt -0.010558 0.466812
vt -0.021849 0.494019
vt -0.021856 0.506308
vt -0.010601 0.533531
vt 0.016607 0.544822
vt 0.014910 0.843373
vt 0.014983 0.815060
vt 0.420624 0.816102
vt 0.420681 0.816203
vt 0.015040 0.815161
vt 0.014966 0.843475
vt 0.182721 0.506308
vt 0.182736 0.494019
vt 0.154422 0.493986
vt 0.154408 0.506277
vt 0.155505 0.545049
vt 0.155609 0.455781
vt 0.016607 0.182776
vt 0.016680 0.154465
vt 0.422248 0.183818
vt 0.422305 0.183920
vt 0.016737 0.154566
vt 0.016663 0.182880
vt 0.812133 0.545820
vt 0.812235 0.456554
vt 0.835091 0.456575
vt 0.834989 0.545841
vt 0.440594 0.545841
vt 0.440651 0.456575
vt 0.420608 0.456573
vt 0.420551 0.545839
vt 0.188032 0.455835
vt 0.187931 0.545103
vt 0.165032 0.545073
vt 0.165136 0.455805
vt 0.442372 0.455805
vt 0.442315 0.545073
vt 0.422319 0.545049
vt 0.422376 0.455781
vt 0.420681 0.456540
vt 0.420624 0.545808
vt 0.014983 0.545548
vt -0.012224 0.534259
vt -0.023480 0.507036
vt -0.023473 0.494745
vt -0.012182 0.467538
vt 0.015040 0.456282
vt 0.422376 0.455781
vt 0.422319 0.545049
vt 0.016680 0.544789
vt -0.010530 0.533498
vt -0.021785 0.506277
vt -0.021776 0.493986
vt -0.010487 0.466779
vt 0.016737 0.455521
vt 0.815003 0.534259
vt 0.843314 0.534290
vt -0.012298 0.843314
vt -0.012224 0.815003
vt 0.843392 0.467571
vt 0.815078 0.467538
vt -0.012182 0.815078
vt -0.012255 0.843392
vt 0.154406 0.533498
vt 0.182719 0.533531
vt -0.010601 0.182719
vt -0.010530 0.154406
vt 0.182797 0.466812
vt 0.154484 0.466779
vt -0.010487 0.154484
vt -0.010558 0.182797
vt 0.420551 0.545839
vt 0.420608 0.456573
vt 0.014966 0.456313
vt -0.012255 0.467571
vt -0.023546 0.494778
vt -0.023553 0.507069
vt -0.012298 0.534290
vt 0.014910 0.545581
vt 0.455728 0.499108
vt 0.461750 0.476730
vt 0.429101 0.457829
vt 0.418004 0.499066
vt 0.539285 0.476819
vt 0.545258 0.499210
vt 0.582983 0.499253
vt 0.571977 0.457994
vt 0.522920 0.460416
vt 0.541820 0.427767
vt 0.478064 0.537902
vt 0.461698 0.521496
vt 0.429006 0.540321
vt 0.459163 0.570552
vt 0.500544 0.454391
vt 0.500587 0.416665
vt 0.478153 0.460364
vt 0.459328 0.427672
vt 0.539236 0.521586
vt 0.571886 0.540486
vt 0.522830 0.537951
vt 0.500440 0.543924
vt 0.500396 0.581649
vt 0.541655 0.570643
vt 0.735958 0.541655
vt 0.736042 0.500396
vt 0.976214 0.500396
vt 0.976129 0.541655
vt 0.736141 0.459163
vt 0.976313 0.459163
vt 0.735904 0.571886
vt 0.976076 0.571886
vt 0.736141 0.570552
vt 0.736225 0.540321
vt 0.976397 0.540321
vt 0.976313 0.570552
vt 0.736275 0.499066
vt 0.976447 0.499066
vt 0.736271 0.457829
vt 0.976443 0.457829
vt 0.735904 0.499253
vt 0.735904 0.540486
vt 0.976076 0.540486
vt 0.976076 0.499253
vt 0.736222 0.459328
vt 0.736134 0.500587
vt 0.976305 0.500587
vt 0.976393 0.459328
vt 0.736034 0.541820
vt 0.976206 0.541820
vt 0.736034 0.427767
vt 0.735950 0.457994
vt 0.976122 0.457994
vt 0.976206 0.427767
vt 0.736271 0.429101
vt 0.976443 0.429101
vt 0.429101 0.457829
vt 0.459328 0.427672
vt 0.500587 0.416665
vt 0.541820 0.427767
vt 0.571977 0.457994
vt 0.582983 0.499253
vt 0.571886 0.540486
vt 0.541655 0.570643
vt 0.500396 0.581649
vt 0.459163 0.570552
vt 0.429006 0.540321
vt 0.418004 0.499066
vn -0.0043 -0.4987 -0.8668
vn -0.0017 -0.8650 -0.5017
vn -0.0017 -0.8659 -0.5003
vn -0.0043 -0.4993 -0.8664
vn -1.0000 -0.0026 -0.0006
vn 0.0017 0.8659 0.5003
vn -0.0014 1.0000 0.0000
vn -0.0014 1.0000 0.0022
vn 0.0017 0.8650 0.5017
vn -0.0042 0.8661 -0.4999
vn -0.0058 0.5004 -0.8658
vn -0.0058 0.5016 -0.8651
vn -0.0041 0.8671 -0.4981
vn 0.0058 -0.5016 0.8651
vn 0.0058 -0.0013 1.0000
vn 0.0058 -0.0009 1.0000
vn 0.0058 -0.5004 0.8658
vn 0.0014 -1.0000 -0.0022
vn 0.0014 -1.0000 -0.0001
vn -0.0058 0.0009 -1.0000
vn -0.0058 0.0013 -1.0000
vn 0.0043 0.4993 0.8664
vn 0.0043 0.4987 0.8668
vn 0.0041 -0.8671 0.4981
vn 0.0042 -0.8661 0.4999
vn 0.0000 0.0000 0.0000
vn 0.0006 0.0012 -1.0000
vn -0.0006 -0.0011 1.0000
vn 0.3043 -0.6386 0.7068
vn -0.9809 -0.0028 0.1945
vn -0.9807 -0.0023 -0.1957
vn 1.0000 0.0026 0.0006
vn -0.0026 1.0000 0.0012
vn -0.1957 -0.0016 0.9807
vn 0.0006 0.0011 -1.0000
vn -0.1945 0.0006 -0.9809
vn -0.9809 -0.0027 0.1944
vn 1.0000 0.0025 0.0006
vn -0.1945 0.0007 -0.9809
vn 0.9845 0.1756 0.0008
vn 0.7379 0.6749 0.0012
vn 0.4255 0.9049 0.0013
vn 0.9854 -0.1705 0.0004
vn 0.7414 -0.6711 -0.0003
vn 0.0026 -1.0000 -0.0011
vn -0.7075 -0.0026 0.7067
vn -0.7076 -0.0026 0.7067
vn -0.7067 -0.0010 -0.7076
vn -0.7076 -0.0026 0.7066
vn -0.7067 -0.0010 -0.7075
vn -1.0000 -0.0019 -0.0006
vn -1.0000 -0.0020 -0.0004
vn -1.0000 -0.0020 -0.0007
vn -1.0000 -0.0023 -0.0007
vn -1.0000 -0.0021 -0.0008
vn -1.0000 -0.0023 -0.0005
vn -1.0000 -0.0022 -0.0003
vn 0.0000 0.4992 0.8665
vn 0.0000 -0.0007 1.0000
vn 0.0000 -0.0015 1.0000
vn 0.0000 0.4987 0.8667
vn 0.0000 -0.5007 0.8656
vn 0.0000 -0.5013 0.8653
vn 0.0000 0.8655 0.5009
vn 0.0000 0.8654 0.5011
vn 0.0000 -0.8665 0.4992
vn 0.0000 -0.8668 0.4987
vn 0.0000 -1.0000 -0.0010
vn 0.0000 -1.0000 -0.0012
vn 0.0000 -0.8654 -0.5011
vn 0.0000 -0.8655 -0.5009
vn 0.0000 1.0000 0.0012
vn 0.0000 1.0000 0.0010
vn 0.0000 -0.4988 -0.8667
vn 0.0000 0.0015 -1.0000
vn 0.0000 0.0008 -1.0000
vn 0.0000 -0.4993 -0.8665
vn 0.0000 0.5013 -0.8652
vn 0.0000 0.5007 -0.8656
vn 0.0000 0.8667 -0.4988
vn 0.0000 0.8665 -0.4992
vn 1.0000 0.0022 0.0006
usemtl Bare_Metal
s 1
f 1/1/1 2/2/2 3/3/3 4/4/4
f 5/5/5 6/6/5 7/7/5 8/8/5 4/9/5 3/10/5 9/11/5 10/12/5 11/13/5 12/14/5 13/15/5 14/16/5
f 15/17/6 16/18/7 5/19/8 14/20/9
f 17/21/10 18/22/11 7/23/12 6/24/13
f 19/25/14 20/26/15 12/27/16 11/28/17
f 2/29/2 21/30/18 9/31/19 3/32/3
f 18/33/11 22/34/20 8/35/21 7/36/12
f 20/26/15 23/37/22 13/38/23 12/27/16
f 21/30/18 24/39/24 10/40/25 9/31/19
f 22/34/20 1/1/1 4/4/4 8/35/21
f 23/37/22 15/41/6 14/42/9 13/38/23
f 16/18/7 17/21/10 6/24/13 5/19/8
f 24/39/24 19/43/14 11/44/17 10/40/25
f 25/45/26 26/46/26 27/47/26 28/48/26
f 28/48/27 27/47/27 29/49/27 30/50/27 31/51/27 32/52/27 33/53/27 34/54/27
f 35/55/28 36/56/28 37/57/28 38/58/28 39/59/28 40/60/28 26/46/28 25/45/28
f 41/61/5 42/62/5 43/63/5 44/64/5
f 34/54/26 33/53/29 36/56/29 35/55/26
f 45/65/30 46/66/31 47/67/31 48/68/30
f 25/69/32 44/64/32 41/61/32 28/70/32
f 43/71/33 42/72/33 49/73/33 50/74/33 51/75/33 52/76/33 53/77/33 54/78/33
f 55/79/34 56/80/34 44/81/28 25/45/28
f 28/48/35 41/82/35 57/83/36 58/84/36
f 52/85/37 51/86/31 59/87/31 60/88/37
f 43/63/38 35/89/38 34/90/38 42/62/38
f 54/91/34 61/92/34 35/55/28 43/93/28
f 42/94/27 34/54/27 62/95/39 49/96/39
f 39/97/40 30/98/40 29/99/41 40/100/41
f 40/101/41 29/102/41 27/103/42 26/104/42
f 31/105/43 38/106/43 37/107/44 32/108/44
f 32/109/44 37/110/44 36/111/29 33/112/29
f 30/98/40 39/97/40 38/106/43 31/105/43
f 41/113/45 44/114/45 56/115/45 63/116/45 48/117/45 47/118/45 64/119/45 57/120/45
f 34/121/45 35/122/45 61/123/45 65/124/45 60/125/45 59/126/45 66/127/45 62/128/45
f 45/65/30 48/68/30 63/129/46 67/130/47
f 67/131/47 63/132/46 56/80/34 55/79/34
f 47/67/31 46/66/31 68/133/48 64/134/48
f 64/135/48 68/136/48 58/84/36 57/83/36
f 52/85/37 60/88/37 65/137/49 53/138/47
f 53/139/47 65/140/49 61/92/34 54/91/34
f 59/87/31 51/86/31 50/141/50 66/142/50
f 66/143/50 50/144/50 49/96/39 62/95/39
f 25/145/33 28/146/33 58/147/33 68/148/33 46/149/33 45/150/33 67/151/33 55/152/33
f 21/153/51 2/154/52 70/155/52 77/156/51
f 17/157/53 16/158/51 72/159/51 73/160/53
f 18/161/54 17/157/53 73/160/53 74/162/54
f 19/163/54 24/164/55 80/165/55 75/166/54
f 22/167/56 18/161/54 74/162/54 78/168/56
f 2/154/52 1/169/57 69/170/57 70/155/52
f 16/158/51 15/171/52 71/172/52 72/159/51
f 23/173/57 20/174/56 76/175/56 79/176/57
f 20/174/56 19/163/54 75/166/54 76/175/56
f 15/171/52 23/173/57 79/176/57 71/172/52
f 1/169/57 22/167/56 78/168/56 69/170/57
f 24/164/55 21/153/51 77/156/51 80/165/55
f 79/177/58 76/178/59 88/179/60 91/180/61
f 76/178/59 75/181/62 87/182/63 88/179/60
f 71/183/64 79/177/58 91/180/61 83/184/65
f 75/185/62 80/186/66 92/187/67 87/188/63
f 80/186/66 77/189/68 89/190/69 92/187/67
f 77/189/68 70/191/70 82/192/71 89/190/69
f 72/193/72 71/194/64 83/195/65 84/196/73
f 69/197/74 78/198/75 90/199/76 81/200/77
f 78/198/75 74/201/78 86/202/79 90/199/76
f 74/203/78 73/204/80 85/205/81 86/206/79
f 73/204/80 72/193/72 84/196/73 85/205/81
f 70/207/70 69/197/74 81/200/77 82/208/71
f 82/209/82 81/210/82 90/211/82 86/212/82 85/213/82 84/214/82 83/215/82 91/216/82 88/217/82 87/218/82 92/219/82 89/220/82
